<svg width="148" height="48" viewBox="0 0 148 48" fill="none" xmlns="http://www.w3.org/2000/svg">
<path d="M147.972 41.5044C147.972 45.0756 145.05 48 141.42 48H6.55194C2.92143 48 0 45.0756 0 41.5044V6.49561C0 2.89631 2.92143 0 6.55194 0H141.448C145.05 0 148 2.89631 148 6.49561V41.5044H147.972Z" fill="black"/>
<path fill-rule="evenodd" clip-rule="evenodd" d="M43.4804 35.0482C40.1574 37.5137 35.3337 38.8 31.1531 38.8C25.3646 38.8 20.1121 36.6561 16.1459 33.1187C15.8243 32.7971 16.1459 32.4756 16.4675 32.6899C20.7553 35.1554 26.0078 36.6561 31.4747 36.6561C35.1193 36.6561 39.1927 35.9058 42.9445 34.2979C43.4804 34.0835 44.0164 34.7266 43.4804 35.0482Z" fill="#FCAF17"/>
<path fill-rule="evenodd" clip-rule="evenodd" d="M44.874 33.5475C44.4453 33.0116 42.087 33.3331 41.0151 33.4403C40.6935 33.4403 40.6935 33.2259 40.9079 33.0116C42.8374 31.7252 45.946 32.0468 46.2676 32.4756C46.5892 32.9044 46.1604 36.013 44.3381 37.5137C44.0165 37.7281 43.8021 37.6209 43.9093 37.2993C44.3381 36.3346 45.3028 34.0835 44.874 33.5475Z" fill="#FCAF17"/>
<path fill-rule="evenodd" clip-rule="evenodd" d="M41.0153 23.4713V22.185C41.0153 21.9706 41.1225 21.8634 41.3369 21.8634H47.1254C47.3398 21.8634 47.447 21.9706 47.447 22.185V23.2569C47.447 23.4713 47.3398 23.6857 47.0182 24.1145L44.0167 28.4022C45.0887 28.4022 46.2678 28.5094 47.3398 29.1526C47.5542 29.2598 47.6614 29.4742 47.6614 29.6886V31.0821C47.6614 31.2965 47.447 31.5109 47.2326 31.4037C45.4103 30.4389 43.052 30.3317 41.1225 31.4037C40.9081 31.5109 40.6937 31.2965 40.6937 31.0821V29.7957C40.6937 29.5814 40.6937 29.2598 40.9081 28.9382L44.4455 23.9001H41.4441C41.1225 23.7929 41.0153 23.6857 41.0153 23.4713Z" fill="white"/>
<path fill-rule="evenodd" clip-rule="evenodd" d="M19.791 31.618H18.0759C17.8615 31.618 17.7543 31.5108 17.7543 31.2964V22.1849C17.7543 21.9705 17.8615 21.8633 18.0759 21.8633H19.6838C19.8982 21.8633 20.0054 21.9705 20.0054 22.1849V23.3641C20.4341 22.1849 21.2917 21.649 22.3636 21.649C23.4356 21.649 24.1859 22.1849 24.6147 23.3641C25.0435 22.1849 26.0082 21.649 27.0802 21.649C27.8305 21.649 28.5809 21.9705 29.1169 22.6137C29.6528 23.3641 29.5456 24.436 29.5456 25.5079V31.1892C29.5456 31.4036 29.4384 31.5108 29.2241 31.5108H27.5089C27.2946 31.5108 27.1874 31.4036 27.1874 31.1892V26.3655C27.1874 25.9367 27.1874 25.0792 27.1874 24.6504C27.0802 24.0072 26.6514 23.9 26.1154 23.9C25.6866 23.9 25.2579 24.2216 25.0435 24.6504C24.8291 25.0792 24.8291 25.8295 24.8291 26.3655V31.1892C24.8291 31.4036 24.7219 31.5108 24.5075 31.5108H22.7924C22.578 31.5108 22.4708 31.4036 22.4708 31.1892V26.3655C22.4708 25.4008 22.6852 23.9 21.3989 23.9C20.1125 23.9 20.2197 25.4008 20.2197 26.3655V31.1892C20.1125 31.5108 20.0054 31.618 19.791 31.618Z" fill="white"/>
<path fill-rule="evenodd" clip-rule="evenodd" d="M52.485 21.7562C55.0576 21.7562 56.5584 24.0072 56.5584 26.9015C56.5584 29.6885 54.9505 31.8324 52.485 31.8324C49.9123 31.8324 48.5188 29.5813 48.5188 26.7943C48.5188 23.9001 49.9123 21.7562 52.485 21.7562ZM52.485 23.5785C51.1987 23.5785 51.0915 25.4008 51.0915 26.4727C51.0915 27.5447 51.0915 29.9029 52.485 29.9029C53.8785 29.9029 53.8785 27.9734 53.8785 26.7943C53.8785 26.0439 53.8785 25.0792 53.6641 24.436C53.4497 23.7929 53.1282 23.5785 52.485 23.5785Z" fill="white"/>
<path fill-rule="evenodd" clip-rule="evenodd" d="M59.9888 31.618H58.2737C58.0593 31.618 57.9521 31.5108 57.9521 31.2964V22.1849C57.9521 21.9705 58.1665 21.8633 58.2737 21.8633H59.8816C59.9888 21.8633 60.2032 21.9705 60.2032 22.0777V23.4713C60.7392 22.1849 61.3824 21.649 62.5615 21.649C63.3119 21.649 64.1694 21.9705 64.5982 22.7209C65.027 23.4713 65.027 24.6504 65.027 25.5079V31.1892C65.027 31.2964 64.8126 31.5108 64.7054 31.5108H62.8831C62.6687 31.5108 62.5615 31.4036 62.5615 31.1892V26.2583C62.5615 25.2936 62.6687 23.7928 61.4896 23.7928C61.0608 23.7928 60.632 24.1144 60.4176 24.5432C60.2032 25.0792 60.096 25.6151 60.096 26.2583V31.1892C60.3104 31.5108 60.096 31.618 59.9888 31.618Z" fill="white"/>
<path fill-rule="evenodd" clip-rule="evenodd" d="M36.4061 27.3303C36.4061 27.9734 36.4061 28.6166 36.0845 29.2597C35.7629 29.7957 35.3341 30.0101 34.9054 30.0101C34.2622 30.0101 33.8334 29.4741 33.8334 28.7238C33.8334 27.2231 35.2269 26.9015 36.5133 26.9015V27.3303H36.4061ZM38.1212 31.618C38.014 31.7252 37.7996 31.7252 37.6924 31.618C37.1564 31.0821 37.0492 30.8677 36.7277 30.4389C35.7629 31.4036 35.1198 31.7252 33.8334 31.7252C32.3327 31.7252 31.1536 30.7605 31.1536 28.9382C31.1536 27.5446 31.9039 26.5799 33.0831 26.0439C34.0478 25.6151 35.3341 25.5079 36.4061 25.4008V25.1864C36.4061 24.7576 36.4061 24.2216 36.1917 23.9C35.9773 23.5785 35.5485 23.4713 35.2269 23.4713C34.5838 23.4713 33.9406 23.7928 33.8334 24.5432C33.8334 24.6504 33.7262 24.8648 33.5118 24.8648L31.7967 24.6504C31.6895 24.6504 31.4751 24.5432 31.5823 24.3288C32.0111 22.2921 33.8334 21.649 35.5485 21.649C36.4061 21.649 37.5852 21.8633 38.2284 22.5065C39.0859 23.2569 38.9787 24.3288 38.9787 25.5079V28.295C38.9787 29.1526 39.3003 29.4741 39.6219 29.9029C39.7291 30.1173 39.7291 30.2245 39.6219 30.3317C39.1931 30.7605 38.55 31.2964 38.1212 31.618Z" fill="white"/>
<path fill-rule="evenodd" clip-rule="evenodd" d="M13.2523 27.3303C13.2523 27.9734 13.2523 28.6166 12.9307 29.2597C12.6091 29.7957 12.1803 30.0101 11.7516 30.0101C11.1084 30.0101 10.6796 29.4741 10.6796 28.7238C10.6796 27.2231 12.0731 26.9015 13.3595 26.9015V27.3303H13.2523ZM14.9674 31.618C14.8602 31.7252 14.6458 31.7252 14.5386 31.618C14.0026 31.0821 13.8954 30.8677 13.5739 30.4389C12.6091 31.4036 11.9659 31.7252 10.6796 31.7252C9.17889 31.7252 7.99976 30.7605 7.99976 28.9382C7.99976 27.5446 8.75012 26.5799 9.92925 26.0439C10.894 25.6151 12.1803 25.5079 13.2523 25.4008V25.1864C13.2523 24.7576 13.2523 24.2216 13.0379 23.9C12.8235 23.5785 12.3947 23.4713 12.0731 23.4713C11.43 23.4713 10.7868 23.7928 10.6796 24.5432C10.6796 24.6504 10.5724 24.8648 10.358 24.8648L8.64292 24.6504C8.53573 24.6504 8.32134 24.5432 8.42853 24.3288C8.85731 22.2921 10.6796 21.649 12.3947 21.649C13.2523 21.649 14.4314 21.8633 15.0746 22.5065C15.9321 23.2569 15.8249 24.3288 15.8249 25.5079V28.295C15.8249 29.1526 16.1465 29.4741 16.4681 29.9029C16.5753 30.1173 16.5753 30.2245 16.4681 30.3317C16.0393 30.7605 15.3962 31.2964 14.9674 31.618Z" fill="white"/>
<path d="M72.3159 31.7252C71.4583 31.7252 70.708 31.5108 70.172 30.9748C69.636 30.4389 69.4216 29.7957 69.4216 28.9381C69.4216 28.0806 69.7432 27.3302 70.3864 26.7942C71.0295 26.2583 71.8871 25.9367 73.0662 25.9367C73.7094 25.9367 74.4598 26.0439 75.2101 26.2583V25.1863C75.2101 24.5432 75.1029 24.1144 74.7813 23.9C74.4598 23.6856 74.031 23.5784 73.3878 23.5784C72.959 23.5784 72.5303 23.5784 71.9943 23.6856C71.4583 23.7928 71.0295 23.9 70.6008 24.0072C70.4936 24.0072 70.3864 24.1144 70.2792 24.1144C70.172 24.1144 70.0648 24.0072 70.0648 23.7928V22.9353C70.0648 22.7209 70.0648 22.6137 70.172 22.6137C70.172 22.5065 70.3864 22.5065 70.6008 22.3993C71.5655 22.0777 72.6375 21.8633 73.8166 21.8633C74.9957 21.8633 75.9605 22.0777 76.4965 22.6137C77.0324 23.1496 77.354 23.9 77.354 24.9719V31.1892C77.354 31.5108 77.2468 31.618 76.9252 31.618H75.9605C75.6389 31.618 75.5317 31.5108 75.5317 31.2964L75.4245 30.7604C74.9957 31.082 74.567 31.4036 74.031 31.618C73.3878 31.618 72.8518 31.7252 72.3159 31.7252ZM72.959 30.1173C73.2806 30.1173 73.7094 30.0101 74.1382 29.9029C74.567 29.7957 74.8885 29.5813 75.3173 29.2597V27.4374C74.6741 27.3302 74.1382 27.223 73.6022 27.223C72.3159 27.223 71.6727 27.759 71.6727 28.7237C71.6727 29.1525 71.7799 29.4741 71.9943 29.6885C72.1015 30.0101 72.5303 30.1173 72.959 30.1173Z" fill="#FDB017"/>
<path d="M79.6052 35.2626C79.2836 35.2626 79.1764 35.1554 79.1764 34.8338V22.3993C79.1764 22.0777 79.2836 21.9705 79.6052 21.9705H80.5699C80.8915 21.9705 80.9987 22.0777 80.9987 22.2921L81.1059 22.8281C81.5347 22.3993 81.9635 22.1849 82.4994 21.9705C83.0354 21.7561 83.5714 21.6489 84.1073 21.6489C85.2865 21.6489 86.2512 22.0777 86.8944 22.9353C87.5376 23.7928 87.9663 24.972 87.9663 26.4727C87.9663 27.5446 87.7519 28.4022 87.4304 29.1525C87.1088 29.9029 86.5728 30.5461 86.0368 30.8676C85.5009 31.1892 84.7505 31.5108 84.0002 31.5108C83.4642 31.5108 83.0354 31.4036 82.4994 31.2964C82.0707 31.082 81.6419 30.8676 81.2131 30.5461V34.7266C81.2131 35.0482 81.1059 35.1554 80.7843 35.1554H79.6052V35.2626ZM83.5714 29.9029C84.3217 29.9029 84.9649 29.6885 85.2865 29.0453C85.7153 28.5094 85.8225 27.6518 85.8225 26.5799C85.8225 25.5079 85.6081 24.6504 85.2865 24.2216C84.9649 23.7928 84.3217 23.4712 83.5714 23.4712C82.821 23.4712 82.0707 23.6856 81.3203 24.2216V29.2597C82.0707 29.6885 82.821 29.9029 83.5714 29.9029Z" fill="#FDB017"/>
<path d="M90.11 35.2626C89.7884 35.2626 89.6812 35.1554 89.6812 34.8338V22.3993C89.6812 22.0777 89.7884 21.9705 90.11 21.9705H91.0748C91.3963 21.9705 91.5035 22.0777 91.5035 22.2921L91.6107 22.8281C92.0395 22.3993 92.4683 22.1849 93.0043 21.9705C93.5402 21.7561 94.0762 21.6489 94.6122 21.6489C95.7913 21.6489 96.7561 22.0777 97.3992 22.9353C98.0424 23.7928 98.4712 24.972 98.4712 26.4727C98.4712 27.5446 98.2568 28.4022 97.9352 29.1525C97.6136 29.9029 97.0776 30.5461 96.5417 30.8676C96.0057 31.1892 95.2553 31.5108 94.505 31.5108C93.969 31.5108 93.5402 31.4036 93.0043 31.2964C92.5755 31.082 92.1467 30.8676 91.7179 30.5461V34.7266C91.7179 35.0482 91.6107 35.1554 91.2892 35.1554H90.11V35.2626ZM94.0762 29.9029C94.8266 29.9029 95.4697 29.6885 95.7913 29.0453C96.2201 28.5094 96.3273 27.6518 96.3273 26.5799C96.3273 25.5079 96.1129 24.6504 95.7913 24.2216C95.4697 23.7928 94.8266 23.4712 94.0762 23.4712C93.3258 23.4712 92.5755 23.6856 91.8251 24.2216V29.2597C92.5755 29.6885 93.3258 29.9029 94.0762 29.9029Z" fill="#FDB017"/>
<path d="M102.652 31.7252C101.687 31.7252 100.83 31.618 99.972 31.2964C99.7576 31.1892 99.6504 31.1892 99.5432 31.082C99.436 30.9749 99.436 30.8677 99.436 30.6533V30.0101C99.436 29.7957 99.5432 29.6885 99.6504 29.6885C99.7576 29.6885 99.8648 29.6885 100.186 29.7957C101.044 30.0101 101.794 30.1173 102.545 30.1173C103.188 30.1173 103.617 30.0101 103.938 29.7957C104.26 29.5813 104.367 29.2597 104.367 28.9382C104.367 28.6166 104.26 28.4022 104.153 28.295C103.938 28.0806 103.617 27.9734 103.188 27.759L101.687 27.1159C100.294 26.5799 99.6504 25.7223 99.6504 24.5432C99.6504 23.6856 99.972 23.0425 100.615 22.5065C101.258 21.9705 102.116 21.7561 103.188 21.7561C103.938 21.7561 104.689 21.8633 105.546 22.1849C105.76 22.2921 105.868 22.2921 105.868 22.3993C105.975 22.5065 105.975 22.6137 105.975 22.8281V23.4713C105.975 23.5784 105.975 23.6856 105.868 23.7928C105.76 23.9 105.76 23.9 105.653 23.9C105.546 23.9 105.439 23.9 105.225 23.7928C104.474 23.5784 103.831 23.4713 103.295 23.4713C102.759 23.4713 102.33 23.5784 102.009 23.6856C101.794 23.9 101.58 24.1144 101.58 24.436C101.58 24.7576 101.687 24.972 101.901 25.0792C102.116 25.2936 102.437 25.4007 102.973 25.6151L104.367 26.1511C105.117 26.4727 105.653 26.7943 105.975 27.1159C106.296 27.5446 106.511 27.9734 106.511 28.6166C106.511 29.5813 106.189 30.2245 105.546 30.7605C104.796 31.4036 103.831 31.7252 102.652 31.7252Z" fill="#FDB017"/>
<path d="M111.656 31.618C110.692 31.618 109.941 31.4036 109.512 30.9748C108.977 30.4389 108.762 29.6885 108.762 28.831V23.6856H107.583C107.261 23.6856 107.154 23.5784 107.154 23.2569V22.7209C107.154 22.6137 107.154 22.3993 107.261 22.3993C107.369 22.2921 107.369 22.2921 107.583 22.2921L108.869 22.0777L109.191 19.8266C109.191 19.7194 109.298 19.6122 109.298 19.5051C109.405 19.3979 109.512 19.3979 109.62 19.3979H110.584C110.906 19.3979 111.013 19.5051 111.013 19.8266V21.9705H113.264C113.586 21.9705 113.693 22.0777 113.693 22.3993V23.2569C113.693 23.5784 113.586 23.6856 113.264 23.6856H110.906V28.7238C110.906 29.1525 111.013 29.4741 111.228 29.5813C111.442 29.7957 111.764 29.7957 112.3 29.7957C112.621 29.7957 112.836 29.7957 112.943 29.6885C113.157 29.6885 113.264 29.5813 113.371 29.5813C113.586 29.5813 113.693 29.6885 113.693 29.9029V30.5461C113.693 30.7604 113.693 30.8676 113.586 30.9748C113.479 31.082 113.371 31.082 113.157 31.1892C112.728 31.5108 112.192 31.618 111.656 31.618Z" fill="#FDB017"/>
<path d="M118.838 31.7252C117.445 31.7252 116.265 31.2964 115.515 30.4389C114.765 29.5813 114.336 28.295 114.336 26.7942C114.336 25.1863 114.765 24.0072 115.515 23.1496C116.265 22.2921 117.445 21.8633 118.838 21.8633C120.232 21.8633 121.411 22.2921 122.161 23.1496C122.911 24.0072 123.34 25.2935 123.34 26.7942C123.34 28.4022 122.911 29.5813 122.161 30.4389C121.304 31.2964 120.232 31.7252 118.838 31.7252ZM118.838 30.0101C120.339 30.0101 121.196 28.9381 121.196 26.7942C121.196 24.6504 120.446 23.5784 118.838 23.5784C117.337 23.5784 116.48 24.6504 116.48 26.7942C116.48 28.9381 117.23 30.0101 118.838 30.0101Z" fill="#FDB017"/>
<path d="M125.27 31.4036C124.948 31.4036 124.841 31.2964 124.841 30.9748V22.3993C124.841 22.0777 124.948 21.9705 125.27 21.9705H126.235C126.449 21.9705 126.556 21.9705 126.556 22.0777C126.664 22.0777 126.664 22.1849 126.664 22.3993L126.878 23.4712C127.414 22.9353 127.843 22.5065 128.271 22.2921C128.7 22.0777 129.129 21.9705 129.665 21.9705H129.772C129.879 21.9705 130.094 21.9705 130.201 21.9705C130.308 21.9705 130.415 22.0777 130.415 22.0777C130.415 22.1849 130.523 22.2921 130.523 22.5065V23.4712C130.523 23.6856 130.415 23.9 130.201 23.9C130.094 23.9 129.987 23.9 129.879 23.9C129.772 23.9 129.665 23.9 129.451 23.9C128.593 23.9 127.736 24.1144 126.985 24.6504V31.082C126.985 31.4036 126.878 31.5108 126.556 31.5108H125.27V31.4036Z" fill="#FDB017"/>
<path d="M135.775 31.7252C134.274 31.7252 133.095 31.2964 132.237 30.4389C131.487 29.5813 131.058 28.4022 131.058 26.7943C131.058 25.1864 131.487 24.0072 132.237 23.0425C132.988 22.1849 134.06 21.7561 135.56 21.7561C136.74 21.7561 137.704 22.0777 138.348 22.7209C138.991 23.3641 139.312 24.3288 139.312 25.5079C139.312 25.9367 139.312 26.3655 139.205 26.7943C139.205 26.9015 139.098 27.0087 139.098 27.1159C138.991 27.2231 138.991 27.2231 138.883 27.2231H133.202C133.202 28.1878 133.524 28.831 133.953 29.2597C134.489 29.6885 135.239 29.9029 136.204 29.9029C136.954 29.9029 137.704 29.7957 138.562 29.5813C138.669 29.5813 138.776 29.5813 138.776 29.4741H138.883C139.098 29.4741 139.205 29.5813 139.205 29.7957V30.4389C139.205 30.6533 139.205 30.7605 139.098 30.8677C138.991 30.9748 138.883 30.9749 138.669 31.082C137.812 31.5108 136.847 31.7252 135.775 31.7252ZM137.383 25.8295V25.7223C137.383 24.972 137.168 24.436 136.847 24.0072C136.525 23.5784 136.096 23.3641 135.453 23.3641C134.81 23.3641 134.274 23.5784 133.845 24.0072C133.417 24.436 133.202 25.0792 133.095 25.8295H137.383Z" fill="#FDB017"/>
<path d="M51.092 16.2892C50.6633 16.2892 50.2345 16.182 50.0201 15.8604C49.6985 15.646 49.5913 15.2173 49.5913 14.7885C49.5913 14.3597 49.8057 13.9309 50.1273 13.7166C50.4489 13.395 50.8776 13.2878 51.4136 13.2878C51.7352 13.2878 52.164 13.395 52.5927 13.5022V12.859C52.5927 12.5374 52.4856 12.2158 52.3784 12.1086C52.2712 12.0014 51.9496 11.8943 51.5208 11.8943C51.092 11.8943 50.6633 12.0014 50.2345 12.1086C50.1273 12.1086 50.0201 12.2158 49.9129 12.2158C49.8057 12.2158 49.8057 12.1086 49.8057 12.0014V11.6799C49.8057 11.5727 49.8057 11.5727 49.8057 11.4655L49.9129 11.3583C50.3417 11.3583 50.5561 11.2511 50.8776 11.1439C51.1992 11.1439 51.5208 11.1439 51.7352 11.1439C52.3784 11.1439 52.8071 11.2511 53.1287 11.5727C53.4503 11.7871 53.5575 12.2158 53.5575 12.7518V16.0748C53.5575 16.182 53.4503 16.2892 53.3431 16.2892H52.9143C52.8071 16.2892 52.6999 16.182 52.6999 16.0748V15.7532C52.4856 15.9676 52.164 16.0748 51.9496 16.182C51.628 16.182 51.4136 16.2892 51.092 16.2892ZM51.3064 15.5389C51.5208 15.5389 51.7352 15.5389 51.9496 15.4317C52.164 15.3245 52.3784 15.2173 52.5927 15.1101V14.0381C52.2712 13.9309 51.9496 13.9309 51.5208 13.9309C50.7704 13.9309 50.4489 14.2525 50.4489 14.7885C50.4489 15.0029 50.5561 15.2173 50.6633 15.3245C50.8776 15.4317 51.092 15.5389 51.3064 15.5389Z" fill="white"/>
<path d="M56.2371 16.182C56.1299 16.182 56.1299 16.182 56.0227 16.182C56.0227 16.182 55.9155 16.0748 55.9155 15.9676L54.2004 11.6799V11.5727V11.4655C54.2004 11.3583 54.2004 11.3583 54.3076 11.3583H54.8436C54.9508 11.3583 55.058 11.3583 55.058 11.3583C55.058 11.3583 55.1652 11.4655 55.1652 11.5727L56.4515 15.3245L57.7379 11.5727C57.7379 11.4655 57.845 11.3583 57.845 11.3583C57.845 11.3583 57.9522 11.3583 58.0594 11.3583H58.5954C58.7026 11.3583 58.7026 11.3583 58.7026 11.4655V11.5727V11.6799L56.9875 15.9676C56.9875 16.0748 56.8803 16.182 56.8803 16.182C56.8803 16.182 56.7731 16.182 56.6659 16.182H56.2371Z" fill="white"/>
<path d="M60.7395 16.2892C60.3107 16.2892 59.8819 16.182 59.6675 15.8604C59.346 15.646 59.2388 15.2173 59.2388 14.7885C59.2388 14.3597 59.4532 13.9309 59.7747 13.7166C59.9891 13.395 60.5251 13.2878 61.0611 13.2878C61.3827 13.2878 61.8114 13.395 62.2402 13.5022V12.859C62.2402 12.5374 62.133 12.2158 62.0258 12.1086C61.9186 12.0014 61.597 11.8943 61.1683 11.8943C60.7395 11.8943 60.3107 12.0014 59.8819 12.1086C59.7747 12.1086 59.6675 12.2158 59.5604 12.2158C59.4532 12.2158 59.4532 12.1086 59.4532 12.0014V11.6799C59.4532 11.5727 59.4532 11.5727 59.4532 11.4655L59.5604 11.3583C59.7747 11.2511 59.9891 11.1439 60.3107 11.1439C60.7395 11.1439 61.0611 11.1439 61.3827 11.1439C62.0258 11.1439 62.4546 11.2511 62.7762 11.5727C63.0978 11.7871 63.205 12.2158 63.205 12.7518V16.0748C63.205 16.182 63.0978 16.2892 62.9906 16.2892H62.5618C62.4546 16.2892 62.3474 16.182 62.3474 16.0748V15.7532C62.133 15.9676 61.8114 16.0748 61.597 16.182C61.2755 16.182 60.9539 16.2892 60.7395 16.2892ZM60.9539 15.5389C61.1683 15.5389 61.3827 15.5389 61.597 15.4317C61.8114 15.3245 62.0258 15.2173 62.2402 15.1101V14.0381C61.9186 13.9309 61.597 13.9309 61.1683 13.9309C60.4179 13.9309 60.0963 14.2525 60.0963 14.7885C60.0963 15.0029 60.2035 15.2173 60.3107 15.3245C60.5251 15.4317 60.6323 15.5389 60.9539 15.5389Z" fill="white"/>
<path d="M64.9199 10.3935C64.7055 10.3935 64.5983 10.3935 64.4911 10.2863C64.3839 10.1791 64.3839 10.0719 64.3839 9.85753C64.3839 9.64315 64.3839 9.53595 64.4911 9.42876C64.5983 9.32156 64.7055 9.32156 64.9199 9.32156C65.1343 9.32156 65.2415 9.32156 65.3487 9.42876C65.4559 9.53595 65.4559 9.64315 65.4559 9.85753C65.4559 10.0719 65.4559 10.1791 65.3487 10.2863C65.2415 10.3935 65.1343 10.3935 64.9199 10.3935ZM64.7055 16.182C64.5983 16.182 64.4911 16.0748 64.4911 15.9676V11.4654C64.4911 11.3583 64.5983 11.2511 64.7055 11.2511H65.2415C65.3487 11.2511 65.4559 11.3583 65.4559 11.4654V15.9676C65.4559 16.0748 65.3487 16.182 65.2415 16.182H64.7055Z" fill="white"/>
<path d="M67.8144 16.182C67.4928 16.182 67.1712 16.0748 67.064 15.8604C66.9568 15.646 66.7424 15.4317 66.7424 15.0029V9.21439C66.7424 9.10719 66.8496 9 66.9568 9H67.4928C67.6 9 67.7072 9.10719 67.7072 9.21439V15.0029C67.7072 15.1101 67.7072 15.2173 67.8144 15.3245C67.8144 15.4317 67.9216 15.4317 68.136 15.4317H68.2432H68.3503C68.4575 15.4317 68.4575 15.4317 68.4575 15.4317V15.5388V15.8604C68.4575 15.9676 68.4575 15.9676 68.4575 15.9676L68.3503 16.0748C68.136 16.182 68.0288 16.182 67.8144 16.182Z" fill="white"/>
<path d="M70.6016 16.2892C70.1728 16.2892 69.744 16.182 69.5296 15.8604C69.208 15.646 69.1008 15.2173 69.1008 14.7885C69.1008 14.3597 69.3152 13.9309 69.6368 13.7166C69.8512 13.395 70.28 13.2878 70.9231 13.2878C71.2447 13.2878 71.6735 13.2878 72.1023 13.395V12.859C72.1023 12.5374 71.9951 12.2158 71.8879 12.1086C71.7807 12.0014 71.4591 11.8943 71.0303 11.8943C70.6015 11.8943 70.1728 12.0014 69.744 12.1086C69.6368 12.1086 69.5296 12.2158 69.4224 12.2158C69.3152 12.2158 69.3152 12.1086 69.3152 12.0014V11.6799C69.3152 11.5727 69.3152 11.5727 69.3152 11.4655L69.4224 11.3583C69.6368 11.2511 69.8512 11.1439 70.1728 11.1439C70.6015 11.1439 70.9231 11.1439 71.2447 11.1439C71.8879 11.1439 72.3167 11.2511 72.6382 11.5727C72.9598 11.7871 73.067 12.2158 73.067 12.7518V16.0748C73.067 16.182 72.9598 16.2892 72.8526 16.2892H72.4239C72.3167 16.2892 72.2095 16.182 72.2095 16.0748V15.7532C71.9951 15.9676 71.6735 16.0748 71.4591 16.182C71.1375 16.182 70.8159 16.2892 70.6016 16.2892ZM70.8159 15.5389C71.0303 15.5389 71.2447 15.5389 71.4591 15.4317C71.6735 15.3245 71.8879 15.2173 72.1023 15.1101V14.0381C71.7807 13.9309 71.4591 13.9309 71.0303 13.9309C70.28 13.9309 69.9584 14.2525 69.9584 14.7885C69.9584 15.0029 70.0656 15.2173 70.1728 15.3245C70.3872 15.4317 70.4944 15.5389 70.8159 15.5389Z" fill="white"/>
<path d="M76.7114 16.2892C76.0683 16.2892 75.6395 16.0748 75.2107 15.646L75.1035 15.9676C75.1035 16.0748 74.9963 16.182 74.8891 16.182H74.4604C74.3532 16.182 74.246 16.0748 74.246 15.9676V9.21439C74.246 9.10719 74.3532 9 74.4604 9H74.9963C75.1035 9 75.2107 9.10719 75.2107 9.21439V11.6799C75.7467 11.3583 76.2827 11.1439 76.8186 11.1439C77.4618 11.1439 77.8906 11.3583 78.3194 11.7871C78.7481 12.2158 78.8553 12.859 78.8553 13.6094C78.8553 14.3597 78.6409 15.0029 78.3194 15.5388C77.8906 15.9676 77.3546 16.2892 76.7114 16.2892ZM76.4971 15.4317C77.3546 15.4317 77.7834 14.7885 77.7834 13.6094C77.7834 12.9662 77.6762 12.5374 77.4618 12.2158C77.2474 11.8942 76.9258 11.7871 76.4971 11.7871C76.0683 11.7871 75.6395 11.8942 75.2107 12.2158V14.8957C75.6395 15.3245 76.0683 15.4317 76.4971 15.4317Z" fill="white"/>
<path d="M80.8923 16.182C80.5707 16.182 80.2491 16.0748 80.1419 15.8604C80.0347 15.646 79.8203 15.4317 79.8203 15.0029V9.21439C79.8203 9.10719 79.9275 9 80.0347 9H80.5707C80.6779 9 80.7851 9.10719 80.7851 9.21439V15.0029C80.7851 15.1101 80.7851 15.2173 80.8923 15.3245C80.9994 15.4317 81.1066 15.4317 81.2138 15.4317H81.321H81.4282C81.5354 15.4317 81.5354 15.4317 81.5354 15.4317V15.5388V15.8604C81.5354 15.9676 81.5354 15.9676 81.5354 15.9676L81.4282 16.0748C81.2138 16.182 81.1066 16.182 80.8923 16.182Z" fill="white"/>
<path d="M84.6437 16.2892C83.8933 16.2892 83.2502 16.0748 82.8214 15.646C82.3926 15.2173 82.1782 14.5741 82.1782 13.7166C82.1782 12.859 82.3926 12.2158 82.8214 11.7871C83.2502 11.3583 83.7861 11.1439 84.5365 11.1439C85.1797 11.1439 85.6084 11.3583 85.93 11.6799C86.2516 12.0014 86.466 12.5374 86.466 13.1806C86.466 13.395 86.466 13.6094 86.466 13.8237C86.466 13.9309 86.466 13.9309 86.3588 13.9309H86.2516H83.2502C83.2502 14.4669 83.3574 14.8957 83.6789 15.1101C84.0005 15.3245 84.3221 15.5389 84.8581 15.5389C85.0725 15.5389 85.2869 15.5389 85.3941 15.5389C85.5012 15.5389 85.8228 15.4317 86.0372 15.3245H86.1444H86.2516C86.3588 15.3245 86.3588 15.4317 86.3588 15.5389V15.8604C86.3588 15.9676 86.3588 15.9676 86.3588 16.0748C86.3588 16.0748 86.2516 16.182 86.1444 16.182C85.93 16.2892 85.7156 16.2892 85.5013 16.3964C85.2869 16.5036 84.8581 16.2892 84.6437 16.2892ZM85.5013 13.2878C85.5013 13.2878 85.5013 13.1806 85.5013 13.0734C85.5013 12.6446 85.3941 12.4302 85.1797 12.2158C84.9653 12.0014 84.7509 11.8943 84.3221 11.8943C83.8933 11.8943 83.5718 12.0014 83.3574 12.2158C83.143 12.4302 83.0358 12.859 82.9286 13.2878H85.5013Z" fill="white"/>
<path d="M90.9685 16.2892C90.5397 16.2892 90.1109 16.182 89.8966 15.8604C89.6822 15.5389 89.4678 15.2173 89.4678 14.7885C89.4678 14.3597 89.6822 13.9309 90.0037 13.7166C90.3253 13.395 90.7541 13.2878 91.3973 13.2878C91.7189 13.2878 92.1476 13.395 92.5764 13.5022V12.859C92.5764 12.5374 92.4692 12.2158 92.362 12.1086C92.2548 12.0014 91.9332 11.8943 91.5045 11.8943C91.0757 11.8943 90.6469 12.0014 90.2181 12.1086C90.1109 12.1086 90.0037 12.2158 89.8966 12.2158C89.7894 12.2158 89.7894 12.1086 89.7894 12.0014V11.6799C89.7894 11.5727 89.7894 11.5727 89.7894 11.4655L89.8966 11.3583C90.1109 11.2511 90.3253 11.1439 90.6469 11.1439C91.0757 11.1439 91.3973 11.1439 91.7189 11.1439C92.362 11.1439 92.7908 11.2511 93.1124 11.5727C93.434 11.7871 93.5412 12.2158 93.5412 12.7518V16.0748C93.5412 16.182 93.434 16.2892 93.3268 16.2892H92.898C92.7908 16.2892 92.6836 16.182 92.6836 16.0748V15.7532C92.4692 15.9676 92.1476 16.0748 91.9332 16.182C91.7189 16.2892 91.2901 16.2892 90.9685 16.2892ZM91.1829 15.5389C91.3973 15.5389 91.6117 15.5389 91.826 15.4317C92.0404 15.3245 92.2548 15.2173 92.4692 15.1101V14.0381C92.1476 13.9309 91.8261 13.9309 91.3973 13.9309C90.6469 13.9309 90.3253 14.2525 90.3253 14.7885C90.3253 15.0029 90.4325 15.2173 90.5397 15.3245C90.7541 15.4317 90.9685 15.5389 91.1829 15.5389Z" fill="white"/>
<path d="M96.4353 16.182C95.4705 16.182 95.0418 15.7532 95.0418 14.7885V12.0014H94.3986C94.2914 12.0014 94.1842 11.8942 94.1842 11.787V11.5727C94.1842 11.4655 94.1842 11.4655 94.1842 11.4655C94.1842 11.4655 94.2914 11.3583 94.3986 11.3583L95.149 11.2511L95.2561 10.0719C95.2561 9.96474 95.3633 9.85754 95.4705 9.85754H95.8993C96.0065 9.85754 96.1137 9.96474 96.1137 10.0719V11.2511H97.4C97.5072 11.2511 97.6144 11.3583 97.6144 11.4655V11.787C97.6144 11.8942 97.5072 12.0014 97.4 12.0014H96.1137V14.7885C96.1137 15.0029 96.1137 15.2173 96.2209 15.3245C96.3281 15.4316 96.4353 15.4316 96.7569 15.4316C96.8641 15.4316 97.0784 15.4316 97.1856 15.4316C97.2928 15.4316 97.4 15.4316 97.4 15.4316H97.5072V15.5388V15.7532C97.5072 15.8604 97.5072 15.8604 97.5072 15.9676L97.4 16.0748C97.0784 16.182 96.7569 16.182 96.4353 16.182Z" fill="white"/>
</svg>
